<svg id="Layer_1" enable-background="new 0 0 100 100" viewBox="0 0 100 100" xmlns="http://www.w3.org/2000/svg"><g><path d="m78.796 29.86v7.149c0 .067.013.12.027.173v-.173c0-.2.107-.4.267-.52.173-.133.387-.173.587-.12l.454.12v-6.629c0-.04 0-.093-.013-.133-.053-2.187-1.721-3.988-3.855-4.255.04.2.053.413.053.627 0 .24-.013.48-.067.72 1.44.253 2.547 1.52 2.547 3.041z"/><path d="m74.982 26.099c0-1.601-1.147-2.948-2.654-3.254v6.509c1.507-.308 2.654-1.655 2.654-3.255z"/><path d="m15.656 34.813h21.833c.552 0 1-.448 1-1s-.448-1-1-1h-21.833c-.552 0-1 .448-1 1s.448 1 1 1z"/><path d="m33.154 49.238c0-.552-.448-1-1-1h-16.498c-.552 0-1 .448-1 1s.448 1 1 1h16.498c.552.001 1-.447 1-1z"/><path d="m35.822 41.525c0-.552-.448-1-1-1h-23.822c-.552 0-1 .448-1 1s.448 1 1 1h23.821c.553 0 1.001-.448 1.001-1z"/><path d="m21.148 27.1h19.165c.552 0 1-.448 1-1s-.448-1-1-1h-19.165c-.552 0-1 .448-1 1s.447 1 1 1z"/><path d="m83.358 38.77-3.201-.881v7.229l3.201-.88z"/><path d="m74.048 43.411c.947 0 1.721-.774 1.721-1.721s-.774-1.721-1.721-1.721c-.96 0-1.721.774-1.721 1.721 0 .948.761 1.721 1.721 1.721z"/><path d="m74.715 44.692v2.321c1.147-.92 2.561-1.521 4.108-1.654v-5.389h-2.147c.347.493.534 1.08.534 1.721 0 .814-.32 1.601-.894 2.161-.427.439-.988.733-1.601.84z"/><path d="m53.801 25.485c1.04.44 1.987 1.067 2.774 1.854.04-.013.08-.027.133-.027h.493c2.694 0 4.895-2.187 4.895-4.895v-4.561h-6.469v4.201c.002 1.427-.719 2.681-1.826 3.428z"/><path d="m48.76 22.057c0 1.534 1.24 2.788 2.774 2.788 1.521 0 2.761-1.254 2.761-2.788v-4.868c0-.373.307-.667.667-.667h7.949c-.253-1.414-.92-2.734-1.961-3.761-1.347-1.36-3.148-2.107-5.042-2.107-3.855 0-7.056 3.134-7.149 6.976-.013.133-.013.213-.013.307 0 0 .013.013.013.027v4.093z"/><path d="m55.775 41.664-4.775-4.788c-.267-.253-.267-.68 0-.934.253-.267.68-.267.934 0l5.002 5.002c.013 0 .013.013.027.013l2.441 2.454h12.124c-.347-.493-.534-1.08-.534-1.721 0-.64.2-1.227.534-1.721h-10.43c-.08 0-.173-.027-.253-.053-.08-.04-.16-.08-.213-.147l-9.632-9.629c-.267-.253-.267-.68 0-.947.253-.253.68-.253.947 0l5.695 5.709c.093-.467.16-.947.16-1.414 0-4.055-3.294-7.349-7.362-7.349-1.587 0-2.988 1.067-3.428 2.601l-5.428 19.206h12.417z"/><path d="m46.746 55.148h9.416c.2 0 .4.093.52.253.133.147.173.36.133.56l-3.321 14.912h3.721l5.082-17.913c.133-.854-.133-1.801-.747-2.521-.6-.707-1.494-1.12-2.427-1.12h-17.753v.44c0 2.975 2.415 5.389 5.376 5.389z"/><path d="m53.201 72.207-.84 3.761c.387.12.8.187 1.227.187h3.895c.587 0 1.174-.067 1.734-.16.187-.093.36-.213.507-.36.387-.387.587-.88.587-1.427 0-1.107-.894-2.001-2.001-2.001z"/><path d="m78.383 76.876h11.617c-1.681-3.615-5.295-5.989-9.336-5.989-5.695 0-10.323 4.628-10.323 10.323 0 1.387.28 2.721.814 3.988h3.174l3.441-7.923c.106-.253.346-.399.613-.399z"/><path d="m84.998 78.209c.614.88.987 1.921.987 3.001 0 2.934-2.387 5.322-5.322 5.322-1.801 0-3.454-.947-4.415-2.414l-.88 2.001v.013c-.053.107-.133.187-.227.267-.013.013-.04.027-.053.04-.107.053-.213.093-.333.093h-.227c1.534 1.774 3.735 2.814 6.135 2.814 4.482 0 8.136-3.641 8.136-8.136 0-1.054-.2-2.054-.587-3.001z"/><path d="m76.929 82.531c.56 1.574 2.054 2.668 3.735 2.668 2.201 0 3.988-1.787 3.988-3.988 0-1.147-.533-2.254-1.427-3.001h-4.402z"/><path d="m25.032 56.482c-1.907 0-3.468 1.547-3.468 3.454v2.041h27.182v-2.041c0-1.907-1.547-3.454-3.454-3.454z"/><path d="m34.101 83.131h-6.936c.68 1.24 2.001 2.067 3.468 2.067 1.468 0 2.788-.827 3.468-2.067z"/><path d="m30.634 86.532c-2.201 0-4.148-1.387-4.935-3.401h-2.934c.88 3.588 4.108 6.215 7.869 6.215s7.002-2.628 7.869-6.215h-2.934c-.774 2.014-2.721 3.401-4.935 3.401z"/><path d="m71.42 74.128c2.134-2.774 5.482-4.575 9.243-4.575 1.387 0 2.721.267 3.988.72v-6.802c-3.268-.347-5.829-3.081-5.829-6.415v-10.324c-3.161.333-5.642 2.988-5.642 6.242v13.284c0 .027-.013.04-.013.067-.027.16-.08.293-.187.4 0 0 0 0-.013 0l-7.829 7.643c-1.534 1.507-3.441 2.494-5.509 2.908-.413.173-.854.267-1.321.267h-6.816s-.013.013-.027.013c-.04 0-.093-.013-.147-.013-.027-.013-.053-.027-.08-.04-.013 0-.027-.013-.04-.013h-17.43c-.373 0-.667-.307-.667-.667 0-.373.293-.667.667-.667h16.205c-2.147-1.707-3.601-4.895-3.601-8.536v-4.308h-15.138c-7.749.04-14.031 6.349-14.031 14.098v4.388h4.695.027 37.559c2.468 0 4.828-.934 6.629-2.641l5.295-5.015c-.001-.001.012-.001.012-.014z"/></g></svg>