<svg id="Layer_1" enable-background="new 0 0 53 53" height="512" viewBox="0 0 53 53" width="512" xmlns="http://www.w3.org/2000/svg"><g id="_x35_7"><path d="m49.5749817 34.3421631c-.3499756-.960022-2.1500244-3.8300171-2.7799683-4.6300049h2c.4899902 0 .9199829-.3400269 1.0199585-.8300171l.4299927-2.039978c.1400146-.6500244-.3599854-1.2600098-1.0199585-1.2600098h-4.1900024c-.5400391-2.3699951-1.5200195-4.9000244-3.0100098-7.6000366-.7999878-1.4299927-2.3900146-2.3099976-4.1199951-2.3099976h-22.8099976c-1.7300415 0-3.3099976.8800049-4.1400146 2.3400269-1.4699707 2.6699829-2.4500122 5.2000122-2.9899902 7.5700073h-4.1900025c-.6600342 0-1.1500244.6099854-1.0200195 1.25l.4299927 2.0499878c.1000366.4899902.5300293.8300171 1.0200195.8300171h1.5599976c-.6099854.8099976-1.9899902 3.6699829-2.3300171 4.6199951-.4833641 1.2143478-.7099609 2.5223427-.7099609 3.7299805v9.6199951c0 1.5599976 1.2600098 2.8200073 2.8200073 2.8200073h5.4199829c1.5499878 0 2.8200073-1.2600098 2.8200073-2.8200073v-1.25h25.4400024v1.25c0 1.5599976 1.2600098 2.8200073 2.8099976 2.8200073h5.4199829c1.5599976 0 2.8200073-1.2600098 2.8200073-2.8200073v-9.6199951c0-1.482357-.3711662-3.0213928-.7000122-3.7199707zm-35.289978-14.4900513c.1799927-.3099976.5-.5099487.8599854-.5099487l22.7299805-.0200195c.3699951 0 .7000122.2000122.8699951.5100098 1.3500366 2.5199585 2.2600098 4.8699951 2.6900024 7.0100098.1199951.5999756-.3299561 1.1899414-.9699707 1.1899414h-27.9299927c-.6100464 0-1.0900269-.5799561-.9700317-1.1899414.4400024-2.1700441 1.3500365-4.5200196 2.7200317-6.9900514zm-1.9400025 19c-1.8800049 1.8600464-4.2900391 2.5200195-6.9200439 2.4100342-.4399414-.0200195-.7599487-.3800049-.7599487-.7999878v-2.4000244c0-.9000244.1399536-1.7800293.4199829-2.6400146.1199951-.3499756.460022-.5599976.7700195-.5499878 2.3499756.0499878 4.4099731.539978 5.7299805.9400024.6300049.1900024 1.0999756.6799927 1.25 1.3200073.1599731.6300049-.0200196 1.2600098-.4899903 1.7199707zm21.8800049-.1499634-.6500244 1.5100098c-.5499878 1.2999878-1.8200073 2.1300049-3.2299805 2.1300049h-7.6799927c-1.4000244 0-2.6700439-.8300171-3.2200317-2.1200562l-.6599731-1.5c-.5700073-1.3499756-.2600098-2.9299927.8099976-3.9400024.6599731-.6299438 1.5100098-.9799805 2.4299927-.9799805h8.960022c.9199829 0 1.7799683.3500366 2.4399414.9799805 1.0500487 1.0100098 1.370056 2.5900268.8000487 3.9200439zm13.5999756 1.6199952c0 .3900146-.2999878.7199707-.710022.7399902-2.4599609.0999756-4.7299805-.5200195-6.5-2.2600098-.4299927-.4299927-.5999756-1.0200195-.4499512-1.6099854.1399536-.5999756.5799561-1.0599976 1.1699829-1.2399902 1.2299805-.3800049 3.1699829-.8300171 5.3699951-.8800049.3099976-.0100098.6199951.1799927.7299805.5200195.2600098.7999878.3900146 1.6299438.3900146 2.4699707v2.2600099z"/><path d="m25.413 35.79h2.182v4.568h-2.182z"/><path d="m30.9909363 35.7896118h-1.4124146v4.5684814h.7653198c.6131592 0 1.1653442-.3637085 1.4065552-.9265137l.6470947-1.506897c.2498779-.5822144.1104736-1.2684937-.3468018-1.7078857-.2857665-.2755126-.6625976-.427185-1.0597533-.427185z"/><path d="m20.9637146 36.2124634c-.4650269.4442139-.6054688 1.1334229-.3516846 1.7190552l.6499634 1.503418c.2432251.5604248.7943726.9231567 1.4056396.9231567h.7614746v-4.5684814h-1.4085693c-.3952636-.0000001-.7710571.1502074-1.0568237.4228515z"/><path d="m38.8224792 13.6888428-1.1055908-7.5846558c-.2996826-2.0563354-2.1080322-3.6063232-4.1850586-3.6063232h-14.0637207c-2.0770264 0-3.885376 1.5499878-4.1849976 3.6063232l-1.0953369 7.5950317c.8266602-.0206298.8989869-.0103759 24.6347046-.0103759zm-5.4042968-7.3676758c0-.1756592.0620117-.3409424.1859741-.4649658.2377319-.2480469.6716919-.2583008.9196777 0 .1240234.1240234.1963501.2789917.1963501.4649658v3.5650024c0 .1757202-.0723267.3410645-.1963501.4650269-.1239624.1136475-.2789917.1859741-.4546509.1859741-.1859741 0-.3410034-.0723267-.4650269-.1962891-.1239624-.1240234-.1859741-.2789917-.1859741-.4547119v-3.5650024zm-5.0839844.3926392c-.1033936-.1239624-.1447144-.2685547-.1447144-.413269 0-.1757202.0620117-.3306885.1859741-.4546509.1963501-.1860352.5063477-.2377319.7543945-.1136475.0929565.0516357.1652832.1136475.2272949.1859741l.9093629 1.1573486.9196777-1.1677246c.1756592-.2686768.6613159-.3306274.9403076-.0619507.1240234.1239624.1963501.2789307.1963501.4546509 0 .1343384-.0413208.2686768-.1240234.3720093l-1.1469727 1.4156494 1.1366577 1.4053345c.0516357.0516968.1343384.1859741.1343384.3926392 0 .1757202-.0620117.3306885-.1756592.4547119-.1240234.1239624-.2893677.1962891-.4650269.1962891-.217041 0-.3926392-.1032715-.5269775-.2686768l-.9196777-1.1676636-.9196777 1.1780396c-.1756592.217041-.3720093.2583008-.5062866.2583008-.1654053 0-.3204346-.0723267-.444397-.1859741-.1240234-.1239624-.1859741-.2789917-.1859741-.4443359 0-.1446533.0413208-.2789917.1239624-.3926392l1.1573486-1.4157104zm-5.5593872 2.9036865 1.4673462-3.4822998c.0619507-.1343384.1446533-.2376709.2479858-.3203735.2893677-.2272949.7336426-.1756592.9506836 0 .1033325.0827026.1859741.1860352.2479858.3099976l1.4776611 3.4926758c.0310059.1033936.0516968.1860962.0516968.2686768 0 .1757202-.0620117.3306885-.1756592.4547119-.1240234.1239624-.2893677.1962891-.4650269.1962891-.1343384 0-.2583618-.0412598-.3616333-.1136475-.1033936-.0619507-.1860352-.1653442-.2377319-.2789917l-.2893066-.6716309h-1.4466552l-.2789917.6612549c-.0620117.1343384-.1343384.227417-.2480469.2893677-.2583618.1756592-.6199951.1343384-.8266602-.0826416-.1136475-.1240234-.1756592-.2789917-.1756592-.4547119.0000001-.0825807.020691-.1755983.0620118-.2686769zm-4.309021-3.7302857c.1136475-.1240234.2686768-.1963501.4443359-.1963501h2.8829956c.1756592 0 .3306885.0620117.4546509.1859741.1136475.1240234.1860352.2790527.1860352.4546509 0 .1757202-.0723877.3306885-.1963501.4443359-.1240234.1240234-.2686768.1860962-.4443359.1860962h-.7853394v2.9242554c0 .1860352-.0723267.3410645-.1963501.4650269-.1239624.1240234-.2789307.1859741-.4546509.1859741-.1756592 0-.3409424-.0723267-.4649658-.1962891-.1240234-.1136475-.1860352-.2789917-.1860352-.4547119v-2.9242553h-.7956543c-.1653442 0-.3203125-.0620728-.4443359-.1860962-.1239624-.1239624-.1859741-.2789307-.1859741-.4443359 0-.1755982.0620117-.3306275.1859741-.444275z"/><path d="m24.9654846 6.7241821-.7750244 1.8806763h1.5603638z"/></g></svg>